<?xml version="1.0" encoding="UTF-8" standalone="no"?>
<svg xmlns="http://www.w3.org/2000/svg" contentScriptType="application/ecmascript" contentStyleType="text/css"
     height="213px" preserveAspectRatio="none" style="width:126px;height:213px;" version="1.1" viewBox="0 0 126 213"
     width="126px" zoomAndPan="magnify"><defs><filter height="300%" id="f16t8gtdezepwd" width="300%" x="-1" y="-1"><feGaussianBlur result="blurOut" stdDeviation="2.0"/><feColorMatrix in="blurOut" result="blurOut2" type="matrix" values="0 0 0 0 0 0 0 0 0 0 0 0 0 0 0 0 0 0 .4 0"/><feOffset dx="4.0" dy="4.0" in="blurOut2" result="blurOut3"/><feBlend in="SourceGraphic" in2="blurOut3" mode="normal"/></filter></defs><g><!--MD5=[3fd616f346a44cd59a91eb10b19e157c]
class User--><rect fill="#FEFECE" filter="url(#f16t8gtdezepwd)" height="86.4141" id="User" style="stroke: #A80036; stroke-width: 1.5;" width="104" x="8.5" y="8"/><ellipse cx="42.85" cy="24" fill="#ADD1B2" rx="11" ry="11" style="stroke: #A80036; stroke-width: 1.0;"/><path d="M45.8188,29.6406 Q45.2406,29.9375 44.6,30.0781 Q43.9594,30.2344 43.2563,30.2344 Q40.7563,30.2344 39.4281,28.5938 Q38.1156,26.9375 38.1156,23.8125 Q38.1156,20.6875 39.4281,19.0313 Q40.7563,17.375 43.2563,17.375 Q43.9594,17.375 44.6,17.5313 Q45.2563,17.6875 45.8188,17.9844 L45.8188,20.7031 Q45.1938,20.125 44.6,19.8594 Q44.0063,19.5781 43.3813,19.5781 Q42.0375,19.5781 41.35,20.6563 Q40.6625,21.7188 40.6625,23.8125 Q40.6625,25.9063 41.35,26.9844 Q42.0375,28.0469 43.3813,28.0469 Q44.0063,28.0469 44.6,27.7813 Q45.1938,27.5 45.8188,26.9219 L45.8188,29.6406 Z "/><text fill="#000000" font-family="sans-serif" font-size="12" lengthAdjust="spacingAndGlyphs" textLength="29" x="61.15" y="28.1543">User</text><line style="stroke: #A80036; stroke-width: 1.5;" x1="9.5" x2="111.5" y1="40" y2="40"/><rect fill="none" height="6" style="stroke: #C82930; stroke-width: 1.0;" width="6" x="16.5" y="48"/><text fill="#000000" font-family="sans-serif" font-size="11" lengthAdjust="spacingAndGlyphs" textLength="48" x="28.5" y="54.2104">String id</text><rect fill="none" height="6" style="stroke: #C82930; stroke-width: 1.0;" width="6" x="16.5" y="60.8047"/><text fill="#000000" font-family="sans-serif" font-size="11" lengthAdjust="spacingAndGlyphs" textLength="70" x="28.5" y="67.0151">String name</text><line style="stroke: #A80036; stroke-width: 1.5;" x1="9.5" x2="111.5" y1="73.6094" y2="73.6094"/><ellipse cx="19.5" cy="84.6094" fill="#84BE84" rx="3" ry="3" style="stroke: #038048; stroke-width: 1.0;"/><text fill="#000000" font-family="sans-serif" font-size="11" lengthAdjust="spacingAndGlyphs" textLength="78" x="28.5" y="87.8198">String name()</text><!--MD5=[da382c11ee1fec359311af0da36294da]
class SpecificUser--><rect fill="#FEFECE" filter="url(#f16t8gtdezepwd)" height="48" id="SpecificUser" style="stroke: #A80036; stroke-width: 1.5;" width="109" x="6" y="154"/><ellipse cx="21" cy="170" fill="#ADD1B2" rx="11" ry="11" style="stroke: #A80036; stroke-width: 1.0;"/><path d="M23.9688,175.6406 Q23.3906,175.9375 22.75,176.0781 Q22.1094,176.2344 21.4063,176.2344 Q18.9063,176.2344 17.5781,174.5938 Q16.2656,172.9375 16.2656,169.8125 Q16.2656,166.6875 17.5781,165.0313 Q18.9063,163.375 21.4063,163.375 Q22.1094,163.375 22.75,163.5313 Q23.4063,163.6875 23.9688,163.9844 L23.9688,166.7031 Q23.3438,166.125 22.75,165.8594 Q22.1563,165.5781 21.5313,165.5781 Q20.1875,165.5781 19.5,166.6563 Q18.8125,167.7188 18.8125,169.8125 Q18.8125,171.9063 19.5,172.9844 Q20.1875,174.0469 21.5313,174.0469 Q22.1563,174.0469 22.75,173.7813 Q23.3438,173.5 23.9688,172.9219 L23.9688,175.6406 Z "/><text fill="#000000" font-family="sans-serif" font-size="12" lengthAdjust="spacingAndGlyphs" textLength="77" x="35" y="174.1543">SpecificUser</text><line style="stroke: #A80036; stroke-width: 1.5;" x1="7" x2="114" y1="186" y2="186"/><line style="stroke: #A80036; stroke-width: 1.5;" x1="7" x2="114" y1="194" y2="194"/><!--MD5=[16040c4f3b10eccb0dfeec293bcc78d2]
reverse link User to SpecificUser--><path d="M60.5,114.49 C60.5,128.49 60.5,142.48 60.5,153.67 " fill="none" id="User&lt;-SpecificUser" style="stroke: #A80036; stroke-width: 1.0;"/><polygon fill="none" points="53.5,114.32,60.5,94.32,67.5,114.32,53.5,114.32" style="stroke: #A80036; stroke-width: 1.0;"/><!--MD5=[51db5a212e15aaed17c8b5be40564a73]
@startuml

class User {
  -String id
  -String name
  +String name()
}
User <|- - SpecificUser

@enduml

PlantUML version 1.2020.06(Sun Apr 05 14:38:32 CEST 2020)
(GPL source distribution)
Java Runtime: OpenJDK Runtime Environment
JVM: OpenJDK 64-Bit Server VM
Java Version: 1.8.0_242-b08
Operating System: Linux
Default Encoding: UTF-8
Language: de
Country: DE
--></g></svg>